<svg xmlns="http://www.w3.org/2000/svg" xmlns:xlink="http://www.w3.org/1999/xlink" viewBox="0 0 241.66 240.77"><defs><style>.cls-1{isolation:isolate;}.cls-2{opacity:0.8;mix-blend-mode:multiply;fill:url(#radial-gradient);}.cls-3{fill:url(#Degradado_sin_nombre_2);}.cls-4{fill:#fff;}</style><radialGradient id="radial-gradient" cx="121.28" cy="120.39" r="120.39" gradientUnits="userSpaceOnUse"><stop offset="0" stop-color="#000057"/><stop offset="0.39" stop-color="#7575a4" stop-opacity="0.54"/><stop offset="0.79" stop-color="#d9d9e6" stop-opacity="0.15"/><stop offset="1" stop-color="#fff" stop-opacity="0"/></radialGradient><linearGradient id="Degradado_sin_nombre_2" x1="10546.99" y1="4139.79" x2="10770.86" y2="4363.66" gradientTransform="translate(-10547.36 -4140.27)" gradientUnits="userSpaceOnUse"><stop offset="0" stop-color="#ffe185"/><stop offset="0.21" stop-color="#ffbb36"/><stop offset="0.38" stop-color="#ff5176"/><stop offset="0.52" stop-color="#f63395"/><stop offset="0.74" stop-color="#a436d2"/><stop offset="1" stop-color="#5f4eed"/></linearGradient></defs><g class="cls-1"><g id="Capa_2" data-name="Capa 2"><g id="Capa_1-2" data-name="Capa 1"><circle class="cls-2" cx="121.28" cy="120.39" r="120.39"/><rect class="cls-3" width="175.87" height="175.87" rx="50" transform="translate(175.87 0) rotate(90)"/><path class="cls-4" d="M115.23,54.79a6,6,0,1,0,6,6.05A6,6,0,0,0,115.23,54.79Z"/><path class="cls-4" d="M88.36,62.55a25.39,25.39,0,1,0,25.39,25.39A25.42,25.42,0,0,0,88.36,62.55Zm0,41.65a16.27,16.27,0,1,1,16.26-16.26A16.28,16.28,0,0,1,88.36,104.2Z"/><path class="cls-4" d="M108.52,139.49H67.35a31,31,0,0,1-31-31V67.35a31,31,0,0,1,31-31h41.17a31,31,0,0,1,31,31v41.17A31,31,0,0,1,108.52,139.49ZM67.35,46.08A21.3,21.3,0,0,0,46.08,67.35v41.17a21.29,21.29,0,0,0,21.27,21.27h41.17a21.29,21.29,0,0,0,21.27-21.27V67.35a21.3,21.3,0,0,0-21.27-21.27Z"/></g></g></g></svg>