<svg xmlns="http://www.w3.org/2000/svg" xmlns:xlink="http://www.w3.org/1999/xlink" viewBox="0 0 240.77 242"><defs><style>.cls-1{isolation:isolate;}.cls-2{opacity:0.8;mix-blend-mode:multiply;fill:url(#radial-gradient);}.cls-3{fill:url(#linear-gradient);}.cls-4{fill:#fff;}</style><radialGradient id="radial-gradient" cx="120.39" cy="121.61" r="120.39" gradientUnits="userSpaceOnUse"><stop offset="0" stop-color="#000057"/><stop offset="0.39" stop-color="#7575a4" stop-opacity="0.54"/><stop offset="0.79" stop-color="#d9d9e6" stop-opacity="0.15"/><stop offset="1" stop-color="#fff" stop-opacity="0"/></radialGradient><linearGradient id="linear-gradient" x1="10302.68" y1="4358.99" x2="10451.52" y2="4507.83" gradientTransform="translate(4521.95 -10289.16) rotate(90)" gradientUnits="userSpaceOnUse"><stop offset="0" stop-color="#1677f1"/><stop offset="0.18" stop-color="#186ee9"/><stop offset="0.46" stop-color="#1d56d3"/><stop offset="0.82" stop-color="#262fb0"/><stop offset="1" stop-color="#2b189c"/></linearGradient></defs><g class="cls-1"><g id="Capa_2" data-name="Capa 2"><g id="Capa_1-2" data-name="Capa 1"><circle class="cls-2" cx="120.39" cy="121.61" r="120.39"/><path class="cls-3" d="M.6,129.87V46a46.14,46.14,0,0,1,46-46h83.86a46.14,46.14,0,0,1,46,46v83.87a46.14,46.14,0,0,1-46,46H102.28l-14.76-3.6-12.72,3.6H46.61A46.14,46.14,0,0,1,.6,129.87Z"/><path class="cls-4" d="M122.77,116.24l3.9-25.42H102.28V74.33c0-7,3.4-13.73,14.33-13.73H127.7V39A135.18,135.18,0,0,0,108,37.24c-20.08,0-33.21,12.17-33.21,34.21V90.82H52.47v25.42H74.8v59.63h27.48V116.24Z"/></g></g></g></svg>