<svg xmlns="http://www.w3.org/2000/svg" xmlns:xlink="http://www.w3.org/1999/xlink" viewBox="0 0 244.05 240.77"><defs><style>.cls-1{isolation:isolate;}.cls-2{opacity:0.8;mix-blend-mode:multiply;fill:url(#radial-gradient);}.cls-3{fill:url(#Degradado_sin_nombre_8);}.cls-4,.cls-5{fill:#fff;}.cls-5{fill-rule:evenodd;}</style><radialGradient id="radial-gradient" cx="123.67" cy="120.39" r="120.39" gradientUnits="userSpaceOnUse"><stop offset="0" stop-color="#000057"/><stop offset="0.39" stop-color="#7575a4" stop-opacity="0.54"/><stop offset="0.79" stop-color="#d9d9e6" stop-opacity="0.15"/><stop offset="1" stop-color="#fff" stop-opacity="0"/></radialGradient><linearGradient id="Degradado_sin_nombre_8" x1="10804.1" y1="3977.72" x2="10950.6" y2="4124.21" gradientTransform="translate(-10789.41 -3963.03)" gradientUnits="userSpaceOnUse"><stop offset="0" stop-color="#00fb73"/><stop offset="1" stop-color="#00b25b"/></linearGradient></defs><g class="cls-1"><g id="Capa_2" data-name="Capa 2"><g id="Capa_1-2" data-name="Capa 1"><circle class="cls-2" cx="123.67" cy="120.39" r="120.39"/><rect class="cls-3" width="175.87" height="175.87" rx="50" transform="translate(175.87 0) rotate(90)"/><path class="cls-4" d="M40.42,137.7l7.34-27.36a50.61,50.61,0,1,1,20.16,20Zm28.87-17.62,1.73,1A41.09,41.09,0,1,0,57,107.18L58,108.92,53.93,124.2Z"/><path class="cls-5" d="M110.72,93c-2.08-1.25-4.78-2.64-7.23-1.63-1.88.76-3.08,3.71-4.3,5.21a1.8,1.8,0,0,1-2.33.5,32.8,32.8,0,0,1-16.35-14,2,2,0,0,1,.25-2.74c1.18-1.39,2.66-3,3-4.82s-.55-4-1.32-5.71c-1-2.12-2.09-5.15-4.22-6.35-2-1.11-4.53-.49-6.27.93a12.75,12.75,0,0,0-4.41,10.08,13.75,13.75,0,0,0,.4,3.2A26.17,26.17,0,0,0,71,84.72a54.46,54.46,0,0,0,3.2,4.87,49.45,49.45,0,0,0,13.9,12.91,42.26,42.26,0,0,0,8.67,4.12c3.4,1.13,6.42,2.29,10.09,1.6,3.84-.73,7.63-3.11,9.15-6.81a6,6,0,0,0,.43-3.47C115.89,95.55,112.66,94.12,110.72,93Z"/></g></g></g></svg>