<svg xmlns="http://www.w3.org/2000/svg" xmlns:xlink="http://www.w3.org/1999/xlink" viewBox="0 0 1259.11 366.27"><defs><style>.cls-1{fill:#fff;}.cls-2{fill:url(#Degradado_sin_nombre_77);}</style><radialGradient id="Degradado_sin_nombre_77" cx="722.56" cy="59.1" r="87.27" gradientUnits="userSpaceOnUse"><stop offset="0" stop-color="#ffed4a"/><stop offset="1" stop-color="#fbc600"/></radialGradient></defs><g id="Capa_2" data-name="Capa 2"><g id="Capa_1-2" data-name="Capa 1"><path class="cls-1" d="M1259.11,160.53a23.67,23.67,0,1,1-3.17-11.83A23.23,23.23,0,0,1,1259.11,160.53Zm-4.59,0a19.1,19.1,0,1,0-5.59,13.51A18.39,18.39,0,0,0,1254.52,160.53Zm-29.83-12.65H1236q4.8,0,7,1.94a6.62,6.62,0,0,1,2.16,5.19,6.43,6.43,0,0,1-1.65,4.41,9.68,9.68,0,0,1-5.18,2.7,6.9,6.9,0,0,1,2.14,1.17,12.24,12.24,0,0,1,2,2.58q.06.12,4.09,7.32h-7.44q-3.63-7.23-4.87-8.64a3.45,3.45,0,0,0-2.48-1.41,4.63,4.63,0,0,0-.78.09v10h-6.29Zm6.29,10.73h2.73a6.36,6.36,0,0,0,3.85-.88,2.93,2.93,0,0,0,0-4.56,5.76,5.76,0,0,0-3.64-.89h-3Z"/><path class="cls-1" d="M1009.76,282.42c-16.58,22.43-46.32,24.92-46.32,24.92h-79.5L963.17,84.76h59.69L958.23,264.44c6.58,0,13.31.06,22.41-1.81,26.92-5.56,31.54-42.07,31.54-42.07S1020.34,268.11,1009.76,282.42Z"/><path class="cls-1" d="M537.21,260.11c-3,8.22-5.39,13.33-7.16,15.27s-4.52,2.91-8.14,2.91c-3.82,0-6-1.21-6.34-3.69s1-8,4-16.45q4-11.07,8.34-17t21.44-14.74Zm87.93-91.78q1.7-13-10-22c-7.79-5.94-21.42-8.91-41-8.88-16.34,0-30.52,2.65-42.65,7.93s-21.12,11.41-27,18.28S493.34,180.34,488.78,193l-4,11,54.33-.08,6.18-17.16c3.31-9.15,5.78-14.8,7.55-17s4.56-3.29,8.48-3.3c3.46,0,5.43,1.3,6,3.91s-.7,8.18-3.78,16.74q-3.71,10.24-6.9,13.57c-2.18,2.25-13.9,6.56-35.2,13q-29.88,8.88-39,15.59t-15.78,25.06l-4.87,13.49c-6,16.53-5.57,27.28,1.07,32.16s15.11,7.32,25.23,7.31a52.3,52.3,0,0,0,21.58-4.42,58,58,0,0,0,18.43-13.17l-6.32,17.59H578L608.77,222q14.67-40.67,16.37-53.67"/><path class="cls-1" d="M1102.5,260.11c-3,8.22-5.39,13.33-7.16,15.27s-4.52,2.91-8.14,2.91c-3.82,0-6-1.21-6.34-3.69s1-8,4-16.45q4-11.07,8.34-17t21.44-14.74Zm87.93-91.78q1.69-13-10-22c-7.79-5.94-21.42-8.91-41-8.88-16.34,0-30.52,2.65-42.65,7.93s-21.12,11.41-27,18.28-11.09,16.67-15.65,29.32l-4,11,54.33-.08,6.18-17.16c3.31-9.15,5.78-14.8,7.55-17s4.56-3.29,8.48-3.3c3.46,0,5.43,1.3,6,3.91s-.7,8.18-3.78,16.74q-3.71,10.24-6.9,13.57c-2.18,2.25-13.9,6.56-35.2,13q-29.88,8.88-39,15.59t-15.78,25.06l-4.87,13.49c-6,16.53-5.57,27.28,1.07,32.16s15.11,7.32,25.23,7.31a52.3,52.3,0,0,0,21.58-4.42,58,58,0,0,0,18.43-13.17l-6.29,17.59h56.22L1174.06,222q14.67-40.67,16.37-53.67"/><path class="cls-1" d="M419.54,188.45l-25.21,70.69c-3.13,8.78-5.57,13.77-7.3,16s-5,3.25-8.71,2.9-5.44-1.94-5.67-4.45,1.65-6.86,5.21-16.82l24.36-68.31c3.39-9.5,5.82-15.09,7.78-17.6a9.55,9.55,0,0,1,8.66-3.75c4,.42,5.86,2,6,4.19s-1.45,6.94-5.08,17.12m58.29-2.51c4.66-13.05,7-20.48,7.31-25.95a18.41,18.41,0,0,0-6.49-15.55c-5-4.18-13.73-7.54-22.65-7.53-7.28,0-17.76,0-24.89,3.33a47.35,47.35,0,0,0-17.44,13.44l6-16.77H363.26c-28.4,79.5-53.5,149.87-81.89,229.36,20.58-15.78,40.16-18,57.69-.19,10.5-29.3,15.17-45.8,25.66-75.1,3,5.71,7.18,9.26,12.21,12.18s12.6,4.19,19.73,4.18c8.88,0,16.36-1,24-4.75a45.47,45.47,0,0,0,17.91-15.16q6.46-9.56,14.48-32Z"/><path class="cls-1" d="M294,286.11q9.68-10.2,16.87-30.2c4.31-12,4.94-21,2-27.32s-11.59-12.92-25.83-20q-16-8-20.54-12.2c-3.05-2.79-4.56-5.35-4.55-7.71s1-6,2.76-11a18.62,18.62,0,0,1,5.44-8.35,12.76,12.76,0,0,1,8.33-2.79c4,0,6.13,1,6.37,3s-.94,6.84-3.67,14.42L278,192.81l51.19-.06,3.42-9.49c3-8.23,4.66-14.29,5-18.17s-1-8.06-4.06-12.6-8.53-8.12-16.37-10.89-18-4.11-30.58-4.1a117.48,117.48,0,0,0-35.21,5.1q-16.23,5.07-25.57,14.41t-16.42,29q-5,13.85-3,23.9t23,22.4c16.7,9.71,25.83,15.52,27.31,17.5s.65,6.86-2.17,14.71c-2,5.65-4.21,9.41-6.46,11.17s-5.44,2.67-9.55,2.68c-3.8,0-5.87-1.31-6.19-4s1.06-8.35,4.23-17.16l3.73-10.37-51.2.06-2.83,7.89c-4.92,13.66-6.66,23.9-5.17,30.64s6.72,12.09,15.74,16,20.91,5.88,35.55,5.86c13.28,0,25.25-1.84,35.94-5.53s19.3-8.91,25.75-15.7"/><path class="cls-1" d="M778.08,157.05a20.45,20.45,0,0,0-6.85-17.31q-7.5-6.86-23-6.75a56.1,56.1,0,0,0-23.53,5.32,70.39,70.39,0,0,0-21.07,15.58l6.75-17.26-61.09.44L593.81,307.13l60.07-.43,35.33-109.34c4.7-14.13,8.08-22.8,10.28-26s5.39-4.94,9.65-5c4.05,0,6.06,1.4,6,4.18s-2.2,10.69-6.49,23.6L672.29,306.56l60-.43,36.88-114C774.63,175.77,777.62,164.07,778.08,157.05Z"/><path class="cls-1" d="M856.85,185.67l-27.24,75.61c-2.54,7.05-4.75,11.68-6.64,13.83s-4.48,3.21-8,3.22-5.15-1.17-5.42-3.54.9-7.38,3.69-15.13l26.65-74c3-8.44,5.52-13.71,7.48-15.9a10.12,10.12,0,0,1,8-3.3c3.42,0,5.28,1.09,5.56,3.28s-1.12,7.46-4.16,15.89m39.52,52.14L910.24,198q6.3-17.46,6.58-26a30.66,30.66,0,0,0-4.45-16.52q-4.67-8-16.86-13t-31.62-5q-23.14,0-40.87,7.85c-11.78,5.2-21.16,12.08-28,20.64s-13.09,20.46-18.57,35.68l-15.15,42.05q-7.51,20.86-8.15,31.28c-.4,6.95,1,12.89,4.15,17.78s8.69,8.55,16.7,11,18.39,3.61,31.19,3.59a114.49,114.49,0,0,0,32-4.3,79.2,79.2,0,0,0,26.41-13.22q11.73-9,18-19.29C885.7,263.66,896.37,237.81,896.37,237.81Z"/><path class="cls-1" d="M120,264l16.73-46.58,39.73-.06L191,177l-39.74.05,14.43-40.15,24.63,0-1.53,14.38,13.66.09,5.69-14.5h0l.22-.64,1.53-3.89h-.12L223.35,94.5l-106.15.13,0,.12q-53.74.52-84,30.06-30.61,30-33,67.62c-.75,11.75.71,21,4.34,27.78C7,224.86,20.32,231.74,25,231.73a12.61,12.61,0,0,0,8.4-3.07,10,10,0,0,0,3.78-7c.16-2.63-.76-6-2.74-10.21a67.91,67.91,0,0,1-5.26-16.1c-.79-3.85-.67-8.32-.34-13.46.77-12.06,5.14-22.35,13.07-33.31a86,86,0,0,1,31.19-27c13.34-6.8,18.8-6.13,33.24-6.15-11.93,38-25.22,64.62-36.64,98.85s-18.13,48.52-24.56,59.92a23.9,23.9,0,0,1-6.88,8.15c-2.65,1.85-9.83,3.54-24.11,3.27L7.85,306.83l143.65-.52,15.31-42.5C159.53,263.81,120,264,120,264Z"/><path class="cls-2" d="M830.9,112.51l-.14-5.4s-15-3-28-4.92c-3.61-14-9.51-30.88-14.72-40.9C778.91,16.22,731.48-2.1,696.92.19s-53.71,24.15-53.71,24.15l-.48,7.85c-1.88,1.77-3.76,3.67-5.57,5.7-20.08,22.38-17.08,49.17-16.79,54.69a40.24,40.24,0,0,1-6.15,1.77l1.29,23.86ZM709.48,60.41c-18.36,1.21-52.22,15.74-65,8.37,0,0,11.84-37.65,61.17-34.76s62.11,41,62.11,41S727.82,59.19,709.48,60.41ZM768.11,51C756,31.61,730.77,18.32,701.67,18.42c-22.38.07-42.42,8-55.93,20.56,8.61-11.12,21.75-19.8,37.39-24.41h.06a72.15,72.15,0,0,1,24-3.12c23.91.82,47.27,12.72,60.78,27.12Z"/></g></g></svg>